# xmcd CD database file
#
# Track frame offsets:
#	150
#	20758
#	36100
#	48438
#	58873
#	69025
#	80033
#	95300
#	110713
#	122543
#	138223
#	154795
#	170770
#	182783
#
# Disc length: 2668 seconds
#
# Revision: 0
# Processed by: cddbd v1.5.1PL0 Copyright (c) Steve Scherf et al.
# Submitted via: CDex 1.50
#
DISCID=bd0a6a0e
DTITLE=T.Rex - Dandy In The Underworld
DYEAR=1977
DGENRE=Rock
TTITLE0=Dandy In The Underworld
TTITLE1=Crimson Moon
TTITLE2=Universe
TTITLE3=I'm A Fool For You, Girl
TTITLE4=I Love To Boogie
TTITLE5=Visions Of Domino
TTITLE6=Jason B. Sad
TTITLE7=Groove A Little
TTITLE8=The Soul Of My Suit
TTITLE9=Hang-ups
TTITLE10=Pain And Love
TTITLE11=Teen Riot Structure
TTITLE12=Celebrate Summer
TTITLE13=Dandy In The Underworld (Single Version)
EXTD=YEAR: 1977
EXTT0=
EXTT1=
EXTT2=
EXTT3=
EXTT4=
EXTT5=
EXTT6=
EXTT7=
EXTT8=
EXTT9=
EXTT10=
EXTT11=
EXTT12=
EXTT13=
PLAYORDER=
